<?xml version="1.0" standalone="no"?>
<!DOCTYPE svg PUBLIC "-//W3C//DTD SVG 1.1//EN" "http://www.w3.org/Graphics/SVG/1.1/DTD/svg11.dtd" >
<svg xmlns="http://www.w3.org/2000/svg">
<metadata>Generated by IcoMoon</metadata>
<defs>
<font id="eishockey-liga" horiz-adv-x="1024">
<font-face units-per-em="1024" ascent="960" descent="-64" />
<missing-glyph horiz-adv-x="1024" />
<glyph unicode="&#x20;" horiz-adv-x="512" d="" />
<glyph unicode="&#xe900;" glyph-name="jersey" d="M256 192h-57.6c-21.208 0-38.4 17.192-38.4 38.4v345.6c0 128.125 64.119 192 160 192h64c38.741 0 31.662-96 128-96s89.031 96 128 96h64c96.132 0 160-63.855 160-192v-352c0-17.673-14.327-32-32-32h-64v-32c0-17.673-14.327-32-32-32h-448c-17.673 0-32 14.327-32 32v32zM640.142 729.693c-0.843-1.4-11.442-20.21-15.537-26.723-25.446-40.481-59.109-62.97-112.605-62.97-53.489 0-87.197 22.49-112.676 62.947-4.13 6.557-14.797 25.472-15.67 26.918-1.658 2.745-3.009 4.763-4.041 6.136h-59.612c-81.281 0-128-53.339-128-160v-345.6c0-3.535 2.865-6.4 6.4-6.4h57.6c17.673 0 32-14.327 32-32v-32h448v32c0 17.673 14.327 32 32 32h64v352c0 106.783-46.564 160-128 160h-59.705c-1.055-1.396-2.442-3.469-4.152-6.307zM288 256v-32h448v32h-448zM288 288h448v176c0 8.837 7.163 16 16 16s16-7.163 16-16v-112h96v-32h-96v-32h96v-32h-96v-48c0-8.837-7.163-16-16-16s-16 7.163-16 16v-16h-448v16c0-8.837-7.163-16-16-16s-16 7.163-16 16v48h-96v32h96v32h-96v32h96v112c0 8.837 7.163 16 16 16s16-7.163 16-16v-176zM320 768h384v-32h-384v32z" />
<glyph unicode="&#xe901;" glyph-name="arrow-left" d="M752 464h-448c-8.837 0-16-7.163-16-16s7.163-16 16-16h448c8.837 0 16 7.163 16 16s-7.163 16-16 16zM475.863 250.852c5.843-6.493 5.448-16.616-0.882-22.609s-16.198-5.589-22.041 0.904l-196.941 218.852 196.941 218.852c5.843 6.493 15.711 6.898 22.041 0.904s6.725-16.116 0.882-22.609l-177.409-197.148 177.409-197.148z" />
<glyph unicode="&#xe902;" glyph-name="arrow-right" d="M272 464h448c8.837 0 16-7.163 16-16s-7.163-16-16-16h-448c-8.837 0-16 7.163-16 16s7.163 16 16 16zM548.137 250.852c-5.843-6.493-5.448-16.616 0.882-22.609s16.198-5.589 22.041 0.904l196.941 218.852-196.941 218.852c-5.843 6.493-15.711 6.898-22.041 0.904s-6.725-16.116-0.882-22.609l177.409-197.148-177.409-197.148z" />
<glyph unicode="&#xe903;" glyph-name="chevron-down" d="M314.853 555.863c-6.493 5.843-16.616 5.448-22.609-0.882s-5.589-16.198 0.904-22.041l218.852-196.941 218.852 196.941c6.493 5.843 6.898 15.711 0.904 22.041s-16.116 6.725-22.609 0.882l-197.148-177.409-197.148 177.409z" />
<glyph unicode="&#xe904;" glyph-name="chevron-left" d="M619.863 250.852c5.843-6.493 5.448-16.616-0.882-22.609s-16.198-5.589-22.041 0.904l-196.941 218.852 196.941 218.852c5.843 6.493 15.711 6.898 22.041 0.904s6.725-16.116 0.882-22.609l-177.409-197.148 177.409-197.148z" />
<glyph unicode="&#xe905;" glyph-name="chevron-nav-right" horiz-adv-x="512" d="M292.137 250.852c-5.843-6.493-5.448-16.616 0.882-22.609s16.198-5.589 22.041 0.904l196.941 218.852-196.941 218.852c-5.843 6.493-15.711 6.898-22.041 0.904s-6.725-16.116-0.882-22.609l177.409-197.148-177.409-197.148z" />
<glyph unicode="&#xe906;" glyph-name="chevron-right" d="M404.137 250.852c-5.843-6.493-5.448-16.616 0.882-22.609s16.198-5.589 22.041 0.904l196.941 218.852-196.941 218.852c-5.843 6.493-15.711 6.898-22.041 0.904s-6.725-16.116-0.882-22.609l177.409-197.148-177.409-197.148z" />
<glyph unicode="&#xe907;" glyph-name="dashboard" d="M512 96c194.404 0 352 157.596 352 352s-157.596 352-352 352c-194.404 0-352-157.596-352-352s157.596-352 352-352zM512 64c-212.077 0-384 171.923-384 384s171.923 384 384 384c212.077 0 384-171.923 384-384s-171.923-384-384-384zM512 400c17.673 0 32 14.327 32 32s-14.327 32-32 32c-17.673 0-32-14.327-32-32s14.327-32 32-32zM512 368c-35.346 0-64 28.654-64 64s28.654 64 64 64c35.346 0 64-28.654 64-64s-28.654-64-64-64zM512 816c8.837 0 16-7.163 16-16v-64c0-8.837-7.163-16-16-16s-16 7.163-16 16v64c0 8.837 7.163 16 16 16zM880 448c0-8.837-7.163-16-16-16h-64c-8.837 0-16 7.163-16 16s7.163 16 16 16h64c8.837 0 16-7.163 16-16zM240 448c0-8.837-7.163-16-16-16h-64c-8.837 0-16 7.163-16 16s7.163 16 16 16h64c8.837 0 16-7.163 16-16zM235.314 692.686c-6.248-6.248-6.248-16.379 0-22.627l45.255-45.255c6.248-6.248 16.379-6.248 22.627 0s6.248 16.379 0 22.627l-45.255 45.255c-6.248 6.248-16.379 6.248-22.627 0zM783.196 692.686c6.248-6.248 6.248-16.379 0-22.627l-45.255-45.255c-6.248-6.248-16.379-6.248-22.627 0s-6.248 16.379 0 22.627l45.255 45.255c6.248 6.248 16.379 6.248 22.627 0zM645.823 564.686c6.248-6.248 6.248-16.379 0-22.627l-84.451-84.451c-6.248-6.248-16.379-6.248-22.627 0s-6.248 16.379 0 22.627l84.451 84.451c6.248 6.248 16.379 6.248 22.627 0zM235.314 213.49c-6.248 6.248-6.248 16.379 0 22.627l45.255 45.255c6.248 6.248 16.379 6.248 22.627 0s6.248-16.379 0-22.627l-45.255-45.255c-6.248-6.248-16.379-6.248-22.627 0zM783.196 208.804c6.248 6.248 6.248 16.379 0 22.627l-45.255 45.255c-6.248 6.248-16.379 6.248-22.627 0s-6.248-16.379 0-22.627l45.255-45.255c6.248-6.248 16.379-6.248 22.627 0z" />
<glyph unicode="&#xe908;" glyph-name="hamburger" d="M272 624h480c8.837 0 16-7.163 16-16s-7.163-16-16-16h-480c-8.837 0-16 7.163-16 16s7.163 16 16 16zM272 464h480c8.837 0 16-7.163 16-16s-7.163-16-16-16h-480c-8.837 0-16 7.163-16 16s7.163 16 16 16zM272 304h480c8.837 0 16-7.163 16-16s-7.163-16-16-16h-480c-8.837 0-16 7.163-16 16s7.163 16 16 16z" />
<glyph unicode="&#xe909;" glyph-name="info" d="M512 96c194.404 0 352 157.596 352 352s-157.596 352-352 352c-194.404 0-352-157.596-352-352s157.596-352 352-352zM512 64c-212.077 0-384 171.923-384 384s171.923 384 384 384c212.077 0 384-171.923 384-384s-171.923-384-384-384zM560 624c0-26.51-21.49-48-48-48s-48 21.49-48 48c0 26.51 21.49 48 48 48s48-21.49 48-48zM513.6 512c13.255 0 24-10.745 24-24v-208c0-13.255-10.745-24-24-24s-24 10.745-24 24v208c0 13.255 10.745 24 24 24z" />
<glyph unicode="&#xe90a;" glyph-name="statistics" d="M372.318 497.225c-12.503 11.681-20.318 28.315-20.318 46.775 0 35.346 28.654 64 64 64s64-28.654 64-64c0-6.087-0.85-11.975-2.437-17.553l112.426-70.507c11.728 14.666 29.772 24.060 50.011 24.060 7.36 0 14.43-1.242 21.011-3.529l70.51 142.936c-16.632 11.558-27.521 30.804-27.521 52.593 0 35.346 28.654 64 64 64s64-28.654 64-64c0-35.346-28.654-64-64-64-2.117 0-4.211 0.103-6.275 0.304l-73.889-149.786c10.055-11.305 16.164-26.198 16.164-42.518 0-35.346-28.654-64-64-64s-64 28.654-64 64c0 3.545 0.288 7.023 0.843 10.412l-115.491 72.43c-11.589-11.639-27.629-18.842-45.351-18.842-5.346 0-10.539 0.655-15.502 1.89l-67.501-148.379c11.733-11.601 19.003-27.707 19.003-45.511 0-35.346-28.654-64-64-64s-64 28.654-64 64c0 35.346 28.654 64 64 64 5.955 0 11.72-0.813 17.19-2.335l67.128 147.56zM160 160h720c8.837 0 16-7.163 16-16s-7.163-16-16-16h-736c-8.837 0-16 7.163-16 16v608c0 8.837 7.163 16 16 16s16-7.163 16-16v-592zM288 256c17.673 0 32 14.327 32 32s-14.327 32-32 32c-17.673 0-32-14.327-32-32s14.327-32 32-32zM768 640c17.673 0 32 14.327 32 32s-14.327 32-32 32c-17.673 0-32-14.327-32-32s14.327-32 32-32zM416 512c17.673 0 32 14.327 32 32s-14.327 32-32 32c-17.673 0-32-14.327-32-32s14.327-32 32-32zM640 384c17.673 0 32 14.327 32 32s-14.327 32-32 32c-17.673 0-32-14.327-32-32s14.327-32 32-32z" />
<glyph unicode="&#xe90b;" glyph-name="news" d="M192 160c-17.673 0-32 14.327-32 32v384c0 17.673 14.327 32 32 32h45.741v32h-45.741c-35.346 0-64-28.654-64-64v-384c0-35.346 28.654-64 64-64h48.465l-0.17 32h-48.295zM192 160c-17.673 0-32 14.327-32 32v384c0 17.673 14.327 32 32 32h45.741v32h-45.741c-35.346 0-64-28.654-64-64v-384c0-35.346 28.654-64 64-64h48.465l-0.17 32h-48.295zM832 160c17.673 0 32 14.327 32 32v512c0 17.673-14.327 32-32 32h-544c-17.673 0-32-14.327-32-32v-544h576zM288 768h544c35.346 0 64-28.654 64-64v-512c0-35.346-28.654-64-64-64h-608v576c0 35.346 28.654 64 64 64zM352 640v-160h416v160h-416zM352 672h416c17.673 0 32-14.327 32-32v-160c0-17.673-14.327-32-32-32h-416c-17.673 0-32 14.327-32 32v160c0 17.673 14.327 32 32 32zM352 352v-96h64v96h-64zM352 384h64c17.673 0 32-14.327 32-32v-96c0-17.673-14.327-32-32-32h-64c-17.673 0-32 14.327-32 32v96c0 17.673 14.327 32 32 32zM528 384h256c8.837 0 16-7.163 16-16s-7.163-16-16-16h-256c-8.837 0-16 7.163-16 16s7.163 16 16 16zM528 320h256c8.837 0 16-7.163 16-16s-7.163-16-16-16h-256c-8.837 0-16 7.163-16 16s7.163 16 16 16zM528 256h256c8.837 0 16-7.163 16-16s-7.163-16-16-16h-256c-8.837 0-16 7.163-16 16s7.163 16 16 16z" />
<glyph unicode="&#xe90c;" glyph-name="no-photo" d="M512 96c194.404 0 352 157.596 352 352s-157.596 352-352 352c-194.404 0-352-157.596-352-352s157.596-352 352-352zM512 64c-212.077 0-384 171.923-384 384s171.923 384 384 384c212.077 0 384-171.923 384-384s-171.923-384-384-384zM366.936 291.349l126.952 90.53 21.739-14.892-138.98-95.544-0.719 1.027c-20.1-8.963-43.419-8.741-63.622 1.177l-48.203 23.663c-13.821 6.785-19.525 23.489-12.74 37.31 0.385 0.783 0.806 1.548 1.262 2.292 8.166 13.311 25.576 17.483 38.887 9.317 0.641-0.393 1.266-0.812 1.873-1.255l73.55-53.625zM802.924 541.59l-39.157 55.922-22.942-16.064 39.157-55.922 22.942 16.064zM769.018 541.184l-17.229 24.606-209.801-149.611 22.005-15.942 205.025 140.947zM802.924 541.59l-39.157 55.922-22.942-16.064 39.157-55.922 22.942 16.064zM293.386 344.974v0c-0.608 0.443-1.233 0.862-1.873 1.255-13.311 8.166-30.722 3.994-38.887-9.317-0.456-0.744-0.877-1.509-1.262-2.292-6.785-13.821-1.081-30.525 12.74-37.31l60.047-29.477c17.379-8.531 38.040-6.825 53.784 4.441l-9.262 17.808-75.287 54.892zM685.407 297.061l-384.853 274.441-17.229-24.606 388.61-267.211c0.956-0.681 1.927-1.331 2.914-1.948l0.847-0.582 0.031 0.044c16.705-10.038 37.48-11.011 55.158-2.333l57.354 28.155c13.821 6.785 19.525 23.489 12.74 37.31-0.385 0.783-0.806 1.548-1.262 2.292-8.166 13.311-25.576 17.483-38.887 9.317-0.641-0.393-1.266-0.812-1.873-1.255v0l-73.55-53.625zM249.418 547.303l39.157 55.922 22.942-16.064-39.157-55.922-22.942 16.064z" />
<glyph unicode="&#xe90d;" glyph-name="playoff" d="M512 416c17.673 0 32 14.327 32 32s-14.327 32-32 32c-17.673 0-32-14.327-32-32s14.327-32 32-32zM512 384c-35.346 0-64 28.654-64 64s28.654 64 64 64c35.346 0 64-28.654 64-64s-28.654-64-64-64zM800 160h80c8.837 0 16-7.163 16-16s-7.163-16-16-16h-96c-8.837 0-16 7.163-16 16v192c0 8.837 7.163 16 16 16h96c8.837 0 16-7.163 16-16s-7.163-16-16-16h-80v-160zM800 576h80c8.837 0 16-7.163 16-16s-7.163-16-16-16h-96c-8.837 0-16 7.163-16 16v192c0 8.837 7.163 16 16 16h96c8.837 0 16-7.163 16-16s-7.163-16-16-16h-80v-160zM688 256h80c8.837 0 16-7.163 16-16s-7.163-16-16-16h-96c-8.837 0-16 7.163-16 16v416c0 8.837 7.163 16 16 16h96c8.837 0 16-7.163 16-16s-7.163-16-16-16h-80v-384zM224 160h-80c-8.837 0-16-7.163-16-16s7.163-16 16-16h96c8.837 0 16 7.163 16 16v192c0 8.837-7.163 16-16 16h-96c-8.837 0-16-7.163-16-16s7.163-16 16-16h80v-160zM224 576h-80c-8.837 0-16-7.163-16-16s7.163-16 16-16h96c8.837 0 16 7.163 16 16v192c0 8.837-7.163 16-16 16h-96c-8.837 0-16-7.163-16-16s7.163-16 16-16h80v-160zM336 256h-80c-8.837 0-16-7.163-16-16s7.163-16 16-16h96c8.837 0 16 7.163 16 16v416c0 8.837-7.163 16-16 16h-96c-8.837 0-16-7.163-16-16s7.163-16 16-16h80v-384zM560 464h112v-32h-112v32zM368 464h96v-32h-96v32z" />
<glyph unicode="&#xe90e;" glyph-name="puck" d="M192 560l0.385-179.080c0.102-41.933 23.619-80.296 60.94-99.413 75.555-38.7 161.853-57.508 258.692-57.508 96.809 0 183.202 18.795 258.978 57.468 37.49 19.133 61.088 57.669 61.088 99.759v178.773l-32-16v-162.773c0-30.064-16.856-57.59-43.634-71.257-71.104-36.288-152.515-53.971-244.432-53.971-91.935 0-173.236 17.689-244.104 53.989-26.658 13.655-43.456 41.057-43.529 71.009l-0.385 158.976-32 20.026zM512 480c82.623 0 159.719 11.413 215.703 31.008 48.055 16.819 72.297 36.879 72.297 48.992s-24.242 32.173-72.297 48.992c-55.984 19.594-133.080 31.008-215.703 31.008s-159.719-11.413-215.703-31.008c-48.055-16.819-72.297-36.879-72.297-48.992s24.242-32.173 72.297-48.992c55.984-19.594 133.080-31.008 215.703-31.008zM512 448c-176.731 0-320 50.144-320 112s143.269 112 320 112c176.731 0 320-50.144 320-112s-143.269-112-320-112z" />
<glyph unicode="&#xe90f;" glyph-name="schedule" d="M633.142 192h-441.142c-35.346 0-64 28.654-64 64v384c0 35.346 28.654 64 64 64h65.158v-32h-65.158c-17.673 0-32-14.327-32-32v-384c0-17.673 14.327-32 32-32h427.379c3.58-9.38 8.002-18.376 13.261-26.966l2.61 5.963c2.842-3.773 5.906-7.438 9.193-10.997h-11.3zM576 287.916c-0.217 82.536 68.376 161.543 159.171 160.015 24.742-0.416 46.45-3.372 64.829-9.142v-34.119c-16.389 7.053-38.178 10.808-65.367 11.265-79.34 1.335-126.782-71.233-126.633-127.936 0.062-23.594 4.817-44.927 14.265-64h-34.887c-7.512 19.682-11.319 41.054-11.379 63.916zM800 640c0 17.673-14.327 32-32 32h-64v32h64c35.346 0 64-28.654 64-64v-248.42c-9.156 6.352-19.851 11.395-32 15.209v233.21zM352 704h256v-32h-256v32zM128 544h704v-32h-704v32zM288 736v-96h32v96h-32zM288 768h32c17.673 0 32-14.327 32-32v-96c0-17.673-14.327-32-32-32h-32c-17.673 0-32 14.327-32 32v96c0 17.673 14.327 32 32 32zM640 736v-96h32v96h-32zM640 768h32c17.673 0 32-14.327 32-32v-96c0-17.673-14.327-32-32-32h-32c-17.673 0-32 14.327-32 32v96c0 17.673 14.327 32 32 32zM736 160c70.692 0 128 57.308 128 128s-57.308 128-128 128c-70.692 0-128-57.308-128-128s57.308-128 128-128zM736 128c-88.366 0-160 71.634-160 160s71.634 160 160 160c88.366 0 160-71.634 160-160s-71.634-160-160-160zM747.314 276.686c2.895 2.895 4.686 6.895 4.686 11.314v80c0 8.837-7.163 16-16 16s-16-7.163-16-16v0-64h-32c-8.837 0-16-7.163-16-16s7.163-16 16-16h48c4.418 0 8.418 1.791 11.314 4.686z" />
<glyph unicode="&#xe910;" glyph-name="settings" d="M416 528c17.673 0 32 14.327 32 32s-14.327 32-32 32c-17.673 0-32-14.327-32-32s14.327-32 32-32zM416 496c-35.346 0-64 28.654-64 64s28.654 64 64 64c35.346 0 64-28.654 64-64s-28.654-64-64-64zM272 576h96c8.837 0 16-7.163 16-16s-7.163-16-16-16h-96c-8.837 0-16 7.163-16 16s7.163 16 16 16zM464 576h288c8.837 0 16-7.163 16-16s-7.163-16-16-16h-288c-8.837 0-16 7.163-16 16s7.163 16 16 16zM608 304c-17.673 0-32 14.327-32 32s14.327 32 32 32c17.673 0 32-14.327 32-32s-14.327-32-32-32zM608 272c35.346 0 64 28.654 64 64s-28.654 64-64 64c-35.346 0-64-28.654-64-64s28.654-64 64-64zM752 352h-96c-8.837 0-16-7.163-16-16s7.163-16 16-16h96c8.837 0 16 7.163 16 16s-7.163 16-16 16zM560 352h-288c-8.837 0-16-7.163-16-16s7.163-16 16-16h288c8.837 0 16 7.163 16 16s-7.163 16-16 16zM192 736c-17.673 0-32-14.327-32-32v-512c0-17.673 14.327-32 32-32h640c17.673 0 32 14.327 32 32v512c0 17.673-14.327 32-32 32h-640zM192 768h640c35.346 0 64-28.654 64-64v-512c0-35.346-28.654-64-64-64h-640c-35.346 0-64 28.654-64 64v512c0 35.346 28.654 64 64 64z" />
<glyph unicode="&#xe914;" glyph-name="swap" d="M464 592h320c8.837 0 16-7.163 16-16s-7.163-16-16-16h-320c-8.837 0-16 7.163-16 16s7.163 16 16 16zM628.686 427.314c-6.248-6.248-6.248-16.379 0-22.627s16.379-6.248 22.627 0l171.314 171.314-171.314 171.314c-6.248 6.248-16.379 6.248-22.627 0s-6.248-16.379 0-22.627l148.686-148.686-148.686-148.686zM560 320h-320c-8.837 0-16-7.163-16-16s7.163-16 16-16h320c8.837 0 16 7.163 16 16s-7.163 16-16 16zM379.47 155.314c6.040-6.248 6.040-16.379 0-22.627s-15.833-6.248-21.872 0l-165.598 171.314 165.598 171.314c6.040 6.248 15.833 6.248 21.872 0s6.040-16.379 0-22.627l-143.725-148.686 143.725-148.686z" />
<glyph unicode="&#xe915;" glyph-name="table" d="M176 160h672c8.837 0 16-7.163 16-16s-7.163-16-16-16h-672c-8.837 0-16 7.163-16 16s7.163 16 16 16zM384 544v-288h64v288h-64zM384 576h64c17.673 0 32-14.327 32-32v-288c0-17.673-14.327-32-32-32h-64c-17.673 0-32 14.327-32 32v288c0 17.673 14.327 32 32 32zM192 448v-192h64v192h-64zM192 480h64c17.673 0 32-14.327 32-32v-192c0-17.673-14.327-32-32-32h-64c-17.673 0-32 14.327-32 32v192c0 17.673 14.327 32 32 32zM576 640v-384h64v384h-64zM576 672h64c17.673 0 32-14.327 32-32v-384c0-17.673-14.327-32-32-32h-64c-17.673 0-32 14.327-32 32v384c0 17.673 14.327 32 32 32zM768 736v-480h64v480h-64zM768 768h64c17.673 0 32-14.327 32-32v-480c0-17.673-14.327-32-32-32h-64c-17.673 0-32 14.327-32 32v480c0 17.673 14.327 32 32 32z" />
<glyph unicode="&#xe916;" glyph-name="video" d="M192 736c-17.673 0-32-14.327-32-32v-416c0-17.673 14.327-32 32-32h640c17.673 0 32 14.327 32 32v416c0 17.673-14.327 32-32 32h-640zM192 768h640c35.346 0 64-28.654 64-64v-416c0-35.346-28.654-64-64-64h-640c-35.346 0-64 28.654-64 64v416c0 35.346 28.654 64 64 64zM589.275 482.892l-116.099-81.27c-7.239-5.067-17.216-3.307-22.283 3.932-1.883 2.689-2.892 5.893-2.892 9.175v162.539c0 8.837 7.163 16 16 16 3.283 0 6.486-1.010 9.175-2.892l116.099-81.27c7.239-5.067 9-15.044 3.932-22.283-1.071-1.53-2.402-2.861-3.932-3.932zM432 256h32v-96h-32v96zM560 256h32v-96h-32v96zM336 160h352c8.837 0 16-7.163 16-16s-7.163-16-16-16h-352c-8.837 0-16 7.163-16 16s7.163 16 16 16z" />
<glyph unicode="&#xe917;" glyph-name="whistle" d="M369.778 192c84.108 0 145.778 58.884 145.778 144 0 17.673 14.327 32 32 32h225.898l16.109 47.845-248.189 38.796 0.953-2.83c6.983-20.739-8.444-42.211-30.327-42.211h-53.333c-13.738 0-25.943 8.769-30.327 21.789-5.342 21.75-9.733 34.789-13.171 39.118-5.158 6.493-31.909 9.493-45.391 9.493-80.582 0-145.778-64.543-145.778-144s65.195-144 145.778-144zM512 441.6v25.755c5.648 13.074 19.593 21.204 34.316 18.902l248.189-38.796c1.79-0.28 3.552-0.711 5.269-1.289 16.749-5.639 25.755-23.789 20.116-40.538l-16.109-47.845c-4.384-13.020-16.589-21.789-30.327-21.789h-225.898c0-106.255-79.594-176-177.778-176s-177.778 78.798-177.778 176c0 97.202 79.594 176 177.778 176 17.608 0 36.542-3.865 56.8-11.596 8.929-3.408 15.868-10.628 18.918-19.686l13.171-39.118h53.333zM480 736c8.837 0 16-7.163 16-16v-96c0-8.837-7.163-16-16-16s-16 7.163-16 16v96c0 8.837 7.163 16 16 16zM623.196 644.686c6.248-6.248 6.248-16.379 0-22.627l-45.255-45.255c-6.248-6.248-16.379-6.248-22.627 0s-6.248 16.379 0 22.627l45.255 45.255c6.248 6.248 16.379 6.248 22.627 0zM331.314 644.686c-6.248-6.248-6.248-16.379 0-22.627l45.255-45.255c6.248-6.248 16.379-6.248 22.627 0s6.248 16.379 0 22.627l-45.255 45.255c-6.248 6.248-16.379 6.248-22.627 0z" />
<glyph unicode="&#xe918;" glyph-name="stadium" d="M496 526.4v177.6h-272v-512h272v177.6c-36.516 7.412-64 39.696-64 78.4s27.484 70.987 64 78.4zM528 526.4c36.516-7.412 64-39.696 64-78.4s-27.484-70.987-64-78.4v-177.6h272v512h-272v-177.6zM192 704c-17.673 0-32-14.327-32-32v-448c0-17.673 14.327-32 32-32v512zM832 704v-512c17.673 0 32 14.327 32 32v448c0 17.673-14.327 32-32 32zM192 736h640c35.346 0 64-28.654 64-64v-448c0-35.346-28.654-64-64-64h-640c-35.346 0-64 28.654-64 64v448c0 35.346 28.654 64 64 64zM512 400c26.51 0 48 21.49 48 48s-21.49 48-48 48c-26.51 0-48-21.49-48-48s21.49-48 48-48zM688 512c-44.183 0-80 35.817-80 80s35.817 80 80 80c44.183 0 80-35.817 80-80s-35.817-80-80-80zM688 544c26.51 0 48 21.49 48 48s-21.49 48-48 48c-26.51 0-48-21.49-48-48s21.49-48 48-48zM688 224c-44.183 0-80 35.817-80 80s35.817 80 80 80c44.183 0 80-35.817 80-80s-35.817-80-80-80zM688 256c26.51 0 48 21.49 48 48s-21.49 48-48 48c-26.51 0-48-21.49-48-48s21.49-48 48-48zM512 432c-8.837 0-16 7.163-16 16s7.163 16 16 16c8.837 0 16-7.163 16-16s-7.163-16-16-16zM688 576c-8.837 0-16 7.163-16 16s7.163 16 16 16c8.837 0 16-7.163 16-16s-7.163-16-16-16zM336 576c-8.837 0-16 7.163-16 16s7.163 16 16 16c8.837 0 16-7.163 16-16s-7.163-16-16-16zM688 288c-8.837 0-16 7.163-16 16s7.163 16 16 16c8.837 0 16-7.163 16-16s-7.163-16-16-16zM336 288c-8.837 0-16 7.163-16 16s7.163 16 16 16c8.837 0 16-7.163 16-16s-7.163-16-16-16zM336 512c-44.183 0-80 35.817-80 80s35.817 80 80 80c44.183 0 80-35.817 80-80s-35.817-80-80-80zM336 544c26.51 0 48 21.49 48 48s-21.49 48-48 48c-26.51 0-48-21.49-48-48s21.49-48 48-48zM336 224c-44.183 0-80 35.817-80 80s35.817 80 80 80c44.183 0 80-35.817 80-80s-35.817-80-80-80zM336 256c26.51 0 48 21.49 48 48s-21.49 48-48 48c-26.51 0-48-21.49-48-48s21.49-48 48-48zM800 512v-128c-17.673 0-32 14.327-32 32v64c0 17.673 14.327 32 32 32zM224 512c17.673 0 32-14.327 32-32v-64c0-17.673-14.327-32-32-32v128z" />
<glyph unicode="&#xe919;" glyph-name="referee" d="M288 191.999v-31.999h64v576h-32c-11.352 0-22.030-1.040-32-3.121v-540.88zM256 721.324c-41.293-22.522-64-70.965-64-145.324v-288h64v433.324zM160 230.4v345.6c0 128.125 64.119 192 160 192h384c96.132 0 160-63.855 160-192v-352c0-17.673-14.327-32-32-32h-64v-32c0-17.673-14.327-32-32-32h-448c-17.673 0-32 14.327-32 32v32h-64c-17.673 0-32 14.327-32 32v6.4zM736 288v444.895c-9.968 2.070-20.645 3.105-32 3.105h-32v-192h48c1.731-75-14.269-117.041-48-126.124v-257.876h64v128zM832 288v288c0 74.485-22.656 122.907-64 145.385v-433.385h64zM409.6 736l102.4-128 102.4 128h-204.8zM384 160h64v476.775l-64 80v-556.775zM480 160h64v436.775l-7.012-8.765c-12.81-16.013-37.165-16.013-49.976 0l-7.012 8.765v-436.775zM640 418.544c-32 10.336-48 52.155-48 125.456h48v172.775l-64-80v-476.775h64v258.544zM657.27 447.999c16.52 0.104 27.958 17.886 30.392 64.001h-62.547c3.585-46.231 15.555-64.105 32.155-64.001z" />
<glyph unicode="&#xe91a;" glyph-name="staff" d="M768 224h64v32h-64v-32zM737.41 201.423c-0.906 2.006-1.41 4.233-1.41 6.577v256c0 8.837 7.163 16 16 16s16-7.163 16-16v-176h64v288c0 100.939-41.607 154.015-114.946 159.522l-189.054-324.093v-251.429h208v32c0 3.28 0.493 6.444 1.41 9.423zM256 224v32h-64v-25.6c0-3.535 2.865-6.4 6.4-6.4h57.6zM286.59 201.423c0.917-2.979 1.41-6.143 1.41-9.423v-32h208v251.429l-189.053 324.091c-73.209-5.527-114.947-58.705-114.947-159.519v-288h64v176c0 8.837 7.163 16 16 16s16-7.163 16-16v-256c0-2.344-0.504-4.571-1.41-6.577zM314.278 767.923c0.519 0.051 1.046 0.077 1.578 0.077h392.287c0.521 0 1.040-0.025 1.556-0.076 92.949-2.491 154.301-66.329 154.301-191.924v-352c0-17.673-14.327-32-32-32h-64v-32c0-17.673-14.327-32-32-32h-448c-17.673 0-32 14.327-32 32v32h-57.6c-21.208 0-38.4 17.192-38.4 38.4v345.6c0 125.559 61.577 189.416 154.278 191.923zM512 447.508l168.287 288.492h-336.574l168.287-288.492zM624 512h64c8.837 0 16-7.163 16-16s-7.163-16-16-16h-64c-8.837 0-16 7.163-16 16s7.163 16 16 16z" />
</font>
</defs>
</svg>
